name processed_emg_signals
nRows=56
nColumns=7
 
endheader
time	RGLTMED	RRF	RADDLONG	RST	RTA	RGM
1.35	0.2188105093993917	0.1308931485355033	0.4014274605439144	0.3745110043028096	0.0187351869143439	0.1113576405650342
1.351	0.2185502034702867	0.1288601275250932	0.401729890995	0.3762948925648013	0.0207112740644141	0.1102935759740851
1.352	0.2184779160873257	0.1269182336600864	0.4021330275741964	0.3780323127538514	0.0227338595329181	0.1092293610581956
1.353	0.2185911541131826	0.1250665752967284	0.4026325814910329	0.3797229876586755	0.0247985138839669	0.1081669366313439
1.354	0.2188872815755847	0.1233041907915615	0.4032241995663768	0.3813666573948766	0.0269008696247917	0.1071083032275811
1.355	0.2193635220799723	0.1216300511804514	0.4039034724845847	0.3829630786023424	0.0290366253815878	0.106055520839056
1.356	0.2200169612962574	0.1200430628928475	0.4046659430057698	0.3845120236840965	0.0312015499114526	0.1050107085624871
1.357	0.2208445495174267	0.1185420704958524	0.4055071141229661	0.3860132800822824	0.0333914859471899	0.1039760441502039
1.358	0.221843104288854	0.117125859462852	0.4064224571497576	0.3874666495873521	0.0356023538721582	0.1029537634620062
1.359	0.2230093131079656	0.115793158961356	0.4074074197238286	0.3888719476769724	0.0378301552226767	0.1019461598139208
1.36	0.2243397361950081	0.1145426446546819	0.4084574337126053	0.3902290028821021	0.0400709760159228	0.1009555832200403
1.361	0.225830809335834	0.1133729415121007	0.4095679230060728	0.3915376561788884	0.0423209899015206	0.0999844395235482
1.362	0.2274788467981751	0.1122826266219729	0.4107343111827925	0.3927977604055508	0.0445764611352269	0.0990351894131824
1.363	0.2292800443231562	0.1112702320024161	0.4119520290340658	0.3940091797038515	0.0468337473732612	0.0981103473214382
1.364	0.2312304821944295	0.1103342474038363	0.4132165219319664	0.3951717889851847	0.0490893022860023	0.0972124802009134
1.365	0.233326128387679	0.1094731230981636	0.4145232570265599	0.3962854734215291	0.0513396779900575	0.0963442061754052
1.366	0.2355628418040406	0.1086852726498071	0.4158677302579461	0.3973501279622704	0.0535815272981263	0.0955081930625935
1.367	0.2379363755912201	0.1079690756638857	0.4172454731692323	0.3983656568783048	0.0558116057868237	0.094707156765346
1.368	0.2404423805567099	0.1073228805078482	0.4186520595077165	0.3993319733357883	0.0580267736833715	0.0939438595290626
1.369	0.2430764086772917	0.1067450070026174	0.4200831116031429	0.4002489990027451	0.0602239975729699	0.0932211080628444
1.37	0.2458339167088996	0.1062337490799924	0.4215343065139477	0.4011166636921905	0.0624003519294276	0.0925417515227891
1.371	0.2487102699004706	0.1057873774031574	0.4230013819334278	0.4019349050452088	0.0645530204723403	0.0919086793563193
1.372	0.2517007458148875	0.1054041419476644	0.4244801418492699	0.4027036682569534	0.0666792973548165	0.0913248190070976
1.373	0.2548005382595475	0.1050822745408728	0.4259664619511374	0.403422905847819	0.0687765881861886	0.0907931334810762
1.374	0.2580047613282943	0.1048199913584722	0.4274562947814014	0.4040925774817209	0.0708424108943123	0.0903166187750149
1.375	0.2613084535557112	0.1046154953771656	0.4289456746265619	0.4047126498333017	0.0728743964320466	0.0898983011698547
1.3760000000000001	0.2647065821838177	0.1044669787829076	0.4304307221472492	0.4052830965057111	0.0748702893323216	0.0895412343921628
1.377	0.2681940475404762	0.1043726253338257	0.4319076487467684	0.4058038980007522	0.076827948116116	0.0892484966476856
1.3780000000000001	0.2717656875282603	0.1043306126770653	0.4333727606801368	0.4062750417427694	0.0787453455574607	0.0890231875315429
1.379	0.2754162822220484	0.1043391146183586	0.4348224629060599	0.4066965221574919	0.0806205688094678	0.0888684248199848
1.3800000000000001	0.279140558573451	0.1043963033434464	0.4362532626863307	0.4070683408066075	0.0824518193951824	0.0887873411487865
1.381	0.2829331952196569	0.1045003515902222	0.4376617729363563	0.4073905065780234	0.0842374130669268	0.0887830805836962
1.3820000000000001	0.2867888273941155	0.1046494347710658	0.4390447153307914	0.4076630359313259	0.0859757795377005	0.0888587950884438
1.383	0.2907020519355929	0.1048417330444945	0.4403989231669456	0.4078859531973905	0.0876654620880544	0.0890176408960499
1.3840000000000001	0.2946674323917874	0.1050754333357124	0.4417213439886489	0.4080592909307129	0.0893051170518067	0.0892627747892583
1.385	0.2986795042128351	0.1053487313052106	0.4430090419725214	0.4081830903127281	0.0908935131838151	0.0895973502960967
1.3860000000000001	0.3027327800296059	0.1056598332642854	0.4442592000794351	0.4082574016037827	0.0924295309129497	0.0900245138067019
1.387	0.3068217550109012	0.106006958036241	0.4454691219741174	0.4082822846408978	0.0939121614833262	0.0905474006175613
1.3880000000000001	0.3109409122930665	0.1063883387614633	0.4466362337161534	0.4082578093778454	0.095340505986725	0.0911691309093034
1.389	0.3150847284748387	0.1068022246445953	0.4477580852252408	0.4081840564635017	0.0967137742890446	0.0918928056642311
1.3900000000000001	0.3192476791696448	0.1072468826416836	0.4488323515236967	0.4080611178544998	0.0980312838535203	0.0927215025298036
1.391	0.3234242446072011	0.1077205990854714	0.4498568337573464	0.4078890974582956	0.0992924584633535	0.093658271634558
1.3920000000000001	0.3276089152757601	0.1082216812465779	0.4508294599962479	0.4076681118030843	0.1004968268463464	0.0947061313630608
1.393	0.3317961975963645	0.1087484588288758	0.4517482858150386	0.4073982907312239	0.1016440212040253	0.0958680640964772
1.3940000000000001	0.3359806196205814	0.1092992853969378	0.452611494653204	0.4070797781129311	0.1027337756476353	0.0971470119254169
1.395	0.3401567367432798	0.1098725397337478	0.4534173979552017	0.4067127325770662	0.103765924543262	0.0985458723415452
1.3960000000000001	0.3443191374226004	0.110466627126808	0.4541644350909777	0.406297328256049	0.1047404007682445	0.1000674939145533
1.397	0.348462448899655	0.1110799805805899	0.4548511730577981	0.4058337555416648	0.1056572338808356	0.1017146719609373
1.3980000000000001	0.3525813429109145	0.1117110619534545	0.4554763059653423	0.4053222218486459	0.1065165482049218	0.1034901442110168
1.399	0.3566705413861997	0.1123583630179042	0.4560386543071278	0.4047629523826626	0.1073185608312519	0.1053965864806193
1.4000000000000001	0.3607248221248744	0.1130204064432803	0.4565371640226145	0.4041561909093786	0.1080635795364378	0.1074366083536857
1.401	0.3647390244420886	0.1136957467012235	0.456970905355841	0.4035022005210505	0.1087520006206317	0.1096127488820318
1.4020000000000001	0.3687080547764141	0.1143829708944865	0.4573390715168218	0.4028012643976027	0.1093843066645662	0.1119274723083763
1.403	0.3726268922496151	0.1150806995102149	0.4576409771522636	0.4020536865590524	0.109961064206394	0.1143831638187092
1.4040000000000001	0.3764905941690538	0.1157875870991677	0.4578760566318599	0.4012597926067069	0.1104829213386216	0.1169821253299753
1.405	0.3802943014626417	0.1165023228826173	0.4580438621560039	0.4004199304505292	0.1109506052253928	0.1197265713189964
